<svg width="71" height="83" viewBox="0 0 71 83" fill="none" xmlns="http://www.w3.org/2000/svg">
<path d="M12.9283 82.0489L46.9763 0.000854492H57.3443L23.1683 82.0489H12.9283ZM34.9443 76.6729C28.1176 76.6729 22.059 75.3502 16.7683 72.7049C11.563 70.0595 7.46696 66.0915 4.4803 60.8009C1.49363 55.5102 0.00029707 48.8969 0.00029707 40.9609C0.00029707 33.0249 1.49363 26.4542 4.4803 21.2489C7.46696 15.9582 11.6056 12.0329 16.8963 9.47285C22.187 6.82752 28.2456 5.50485 35.0723 5.50485C41.899 5.50485 47.9576 6.82752 53.2483 9.47285C58.539 12.1182 62.6776 16.0862 65.6643 21.3769C68.651 26.5822 70.1443 33.1529 70.1443 41.0889C70.1443 49.1955 68.6083 55.8942 65.5363 61.1849C62.4643 66.4755 58.2403 70.4009 52.8643 72.9609C47.5736 75.4355 41.6003 76.6729 34.9443 76.6729ZM35.5843 61.6969C38.6563 61.6969 41.2163 61.0142 43.2643 59.6489C45.3123 58.1982 46.8483 56.0222 47.8723 53.1209C48.8963 50.2195 49.4083 46.6355 49.4083 42.3689C49.4083 37.8462 48.8536 34.0489 47.7443 30.9769C46.635 27.8195 44.971 25.4302 42.7523 23.8089C40.619 22.1022 37.8456 21.2489 34.4323 21.2489C31.531 21.2489 29.0136 21.9742 26.8803 23.4249C24.8323 24.7902 23.2963 26.9235 22.2723 29.8249C21.2483 32.7262 20.7363 36.3529 20.7363 40.7049C20.7363 47.7022 22.0163 52.9502 24.5763 56.4489C27.2216 59.9475 30.891 61.6969 35.5843 61.6969Z" fill="#323232"/>
</svg>
