<svg width="67" height="30" viewBox="0 0 67 30" fill="none" xmlns="http://www.w3.org/2000/svg">
<rect width="67" height="30" rx="15" fill="#28818F"/>
<path d="M12.91 20V10.64H15.796C15.8913 10.64 16.0582 10.6422 16.2965 10.6465C16.5348 10.6508 16.7623 10.6682 16.979 10.6985C17.7027 10.7938 18.3072 11.0582 18.7925 11.4915C19.2822 11.9205 19.6505 12.4665 19.8975 13.1295C20.1445 13.7925 20.268 14.5227 20.268 15.32C20.268 16.1173 20.1445 16.8475 19.8975 17.5105C19.6505 18.1735 19.2822 18.7217 18.7925 19.155C18.3072 19.584 17.7027 19.8462 16.979 19.9415C16.7623 19.9675 16.5327 19.9848 16.29 19.9935C16.0517 19.9978 15.887 20 15.796 20H12.91ZM14.0995 18.895H15.796C15.9607 18.895 16.1448 18.8907 16.3485 18.882C16.5522 18.869 16.7298 18.8495 16.8815 18.8235C17.3928 18.7282 17.8067 18.5137 18.123 18.18C18.4393 17.8463 18.6712 17.4303 18.8185 16.932C18.9658 16.4337 19.0395 15.8963 19.0395 15.32C19.0395 14.7307 18.9637 14.1868 18.812 13.6885C18.6647 13.1902 18.4328 12.7763 18.1165 12.447C17.8002 12.1177 17.3885 11.9075 16.8815 11.8165C16.7298 11.7862 16.55 11.7667 16.342 11.758C16.134 11.7493 15.952 11.745 15.796 11.745H14.0995V18.895ZM20.8547 20L23.9877 10.64H25.5997L28.7327 20H27.5302L24.5987 11.316H24.9627L22.0572 20H20.8547ZM22.3627 17.8095V16.724H27.2247V17.8095H22.3627ZM29.8963 20V10.64H31.0663L35.9478 17.9525V10.64H37.1178V20H35.9478L31.0663 12.681V20H29.8963ZM42.7834 20.195C41.8517 20.195 41.0609 19.9892 40.4109 19.5775C39.7609 19.1658 39.2647 18.5938 38.9224 17.8615C38.5844 17.1292 38.4154 16.282 38.4154 15.32C38.4154 14.358 38.5844 13.5108 38.9224 12.7785C39.2647 12.0462 39.7609 11.4742 40.4109 11.0625C41.0609 10.6508 41.8517 10.445 42.7834 10.445C43.8667 10.445 44.7572 10.7202 45.4549 11.2705C46.1569 11.8208 46.6401 12.5618 46.9044 13.4935L45.7279 13.8055C45.5372 13.1078 45.1971 12.5575 44.7074 12.1545C44.2177 11.7515 43.5764 11.55 42.7834 11.55C42.0857 11.55 41.5051 11.7082 41.0414 12.0245C40.5777 12.3408 40.2289 12.7828 39.9949 13.3505C39.7609 13.9138 39.6417 14.5703 39.6374 15.32C39.6331 16.0653 39.7479 16.7218 39.9819 17.2895C40.2159 17.8528 40.5669 18.2948 41.0349 18.6155C41.5029 18.9318 42.0857 19.09 42.7834 19.09C43.5764 19.09 44.2177 18.8885 44.7074 18.4855C45.1971 18.0782 45.5372 17.5278 45.7279 16.8345L46.9044 17.1465C46.6401 18.0738 46.1569 18.8148 45.4549 19.3695C44.7572 19.9198 43.8667 20.195 42.7834 20.195ZM48.3299 20V10.64H54.2449V11.7385H49.4869V14.67H53.4649V15.7685H49.4869V18.9015H54.2449V20H48.3299Z" fill="white"/>
</svg>
