<svg width="65" height="30" viewBox="0 0 65 30" fill="none" xmlns="http://www.w3.org/2000/svg">
<rect width="65" height="30" rx="15" fill="#323232"/>
<path d="M12.91 20V10.64H13.963L17.499 18.0955L21.0155 10.64H22.0815V19.9935H20.983V13.1815L17.8045 20H17.187L14.0085 13.1815V20H12.91ZM27.5961 20.195C26.8725 20.195 26.2333 20.0455 25.6786 19.7465C25.124 19.4475 24.6885 19.0293 24.3721 18.492C24.0601 17.9503 23.9041 17.3155 23.9041 16.5875V10.6465L25.0741 10.64V16.49C25.0741 16.932 25.1478 17.3177 25.2951 17.647C25.4468 17.972 25.6461 18.2428 25.8931 18.4595C26.1401 18.6762 26.411 18.8387 26.7056 18.947C27.0046 19.051 27.3015 19.103 27.5961 19.103C27.8951 19.103 28.1941 19.0488 28.4931 18.9405C28.7921 18.8322 29.063 18.6718 29.3056 18.4595C29.5526 18.2428 29.7498 17.9698 29.8971 17.6405C30.0445 17.3112 30.1181 16.9277 30.1181 16.49V10.64H31.2881V16.5875C31.2881 17.3112 31.13 17.9438 30.8136 18.4855C30.5016 19.0272 30.0683 19.4475 29.5136 19.7465C28.959 20.0455 28.3198 20.195 27.5961 20.195ZM36.0362 20.195C35.3732 20.195 34.7752 20.0823 34.2422 19.857C33.7135 19.6317 33.2759 19.311 32.9292 18.895C32.5869 18.4747 32.3637 17.9785 32.2597 17.4065L33.4557 17.218C33.6074 17.8073 33.9215 18.2688 34.3982 18.6025C34.8792 18.9318 35.4447 19.0965 36.0947 19.0965C36.515 19.0965 36.8942 19.0315 37.2322 18.9015C37.5745 18.7672 37.8454 18.5765 38.0447 18.3295C38.244 18.0825 38.3437 17.79 38.3437 17.452C38.3437 17.244 38.3069 17.0663 38.2332 16.919C38.1639 16.7673 38.0664 16.6395 37.9407 16.5355C37.8194 16.4272 37.6807 16.3362 37.5247 16.2625C37.3687 16.1888 37.2062 16.1282 37.0372 16.0805L34.6517 15.372C34.3917 15.294 34.1404 15.1965 33.8977 15.0795C33.655 14.9582 33.4384 14.8087 33.2477 14.631C33.057 14.449 32.9054 14.2323 32.7927 13.981C32.68 13.7253 32.6237 13.4242 32.6237 13.0775C32.6237 12.5228 32.7667 12.0505 33.0527 11.6605C33.343 11.2662 33.7352 10.965 34.2292 10.757C34.7232 10.549 35.28 10.4472 35.8997 10.4515C36.528 10.4558 37.0892 10.5685 37.5832 10.7895C38.0815 11.0062 38.4932 11.3182 38.8182 11.7255C39.1475 12.1328 39.3685 12.6203 39.4812 13.188L38.2527 13.4025C38.1877 13.0212 38.0425 12.694 37.8172 12.421C37.5962 12.1437 37.3189 11.9313 36.9852 11.784C36.6515 11.6323 36.2854 11.5543 35.8867 11.55C35.5054 11.5457 35.1609 11.6063 34.8532 11.732C34.5455 11.8577 34.3007 12.0332 34.1187 12.2585C33.9367 12.4795 33.8457 12.7352 33.8457 13.0255C33.8457 13.3115 33.928 13.5433 34.0927 13.721C34.2574 13.8943 34.4589 14.033 34.6972 14.137C34.9399 14.2367 35.176 14.319 35.4057 14.384L37.1867 14.8975C37.3904 14.9538 37.6244 15.0318 37.8887 15.1315C38.1574 15.2312 38.4174 15.372 38.6687 15.554C38.92 15.7317 39.128 15.97 39.2927 16.269C39.4574 16.5637 39.5397 16.9363 39.5397 17.387C39.5397 17.8377 39.4487 18.2385 39.2667 18.5895C39.089 18.9405 38.8399 19.2352 38.5192 19.4735C38.1985 19.7075 37.8259 19.8852 37.4012 20.0065C36.9765 20.1322 36.5215 20.195 36.0362 20.195ZM41.0332 20V10.64H42.1902V20H41.0332ZM47.9885 20.195C47.0568 20.195 46.266 19.9892 45.616 19.5775C44.966 19.1658 44.4698 18.5938 44.1275 17.8615C43.7895 17.1292 43.6205 16.282 43.6205 15.32C43.6205 14.358 43.7895 13.5108 44.1275 12.7785C44.4698 12.0462 44.966 11.4742 45.616 11.0625C46.266 10.6508 47.0568 10.445 47.9885 10.445C49.0718 10.445 49.9623 10.7202 50.66 11.2705C51.362 11.8208 51.8451 12.5618 52.1095 13.4935L50.933 13.8055C50.7423 13.1078 50.4021 12.5575 49.9125 12.1545C49.4228 11.7515 48.7815 11.55 47.9885 11.55C47.2908 11.55 46.7101 11.7082 46.2465 12.0245C45.7828 12.3408 45.434 12.7828 45.2 13.3505C44.966 13.9138 44.8468 14.5703 44.8425 15.32C44.8381 16.0653 44.953 16.7218 45.187 17.2895C45.421 17.8528 45.772 18.2948 46.24 18.6155C46.708 18.9318 47.2908 19.09 47.9885 19.09C48.7815 19.09 49.4228 18.8885 49.9125 18.4855C50.4021 18.0782 50.7423 17.5278 50.933 16.8345L52.1095 17.1465C51.8451 18.0738 51.362 18.8148 50.66 19.3695C49.9623 19.9198 49.0718 20.195 47.9885 20.195Z" fill="white"/>
</svg>
